HIERARCHY
ROOT Hips
{
	OFFSET -3.958830 18.904000 13.208200
	CHANNELS 6 Xposition Yposition Zposition Zrotation Yrotation Xrotation 
	JOINT LHipJoint
	{
		OFFSET 0.000000 0.000000 0.000000
		CHANNELS 3 Zrotation Yrotation Xrotation
		JOINT LeftUpLeg
		{
			OFFSET 1.800000 -1.400000 0.085000
			CHANNELS 3 Zrotation Yrotation Xrotation
			JOINT LeftLeg
			{
				OFFSET 2.215000 -6.000000 0.000000
				CHANNELS 3 Zrotation Yrotation Xrotation
				JOINT LeftFoot
				{
					OFFSET 2.500000 -6.900000 0.000000
					CHANNELS 3 Zrotation Yrotation Xrotation
					JOINT LeftToeBase
					{
						OFFSET 0.200000 -0.500000 1.950000
						CHANNELS 3 Zrotation Yrotation Xrotation
						End Site
						{
							OFFSET 0.000000 0.000000 0.000000
						}
					}
				}
			}
		}
	}
	JOINT RHipJoint
	{
		OFFSET 0.000000 0.000000 0.000000
		CHANNELS 3 Zrotation Yrotation Xrotation
		JOINT RightUpLeg
		{
			OFFSET -1.800000 -1.400000 0.085000
			CHANNELS 3 Zrotation Yrotation Xrotation
			JOINT RightLeg
			{
				OFFSET -2.215000 -6.000000 0.000000
				CHANNELS 3 Zrotation Yrotation Xrotation
				JOINT RightFoot
				{
					OFFSET -2.500000 -6.900000 0.000000
					CHANNELS 3 Zrotation Yrotation Xrotation
					JOINT RightToeBase
					{
						OFFSET -0.200000 -0.500000 1.950000
						CHANNELS 3 Zrotation Yrotation Xrotation
						End Site
						{
							OFFSET 0.000000 0.000000 0.000000
						}
					}
				}
			}
		}
	}
	JOINT LowerBack
	{
		OFFSET 0.000000 0.000000 0.000000
		CHANNELS 3 Zrotation Yrotation Xrotation
		JOINT Spine
		{
			OFFSET -0.087000 1.940000 -0.288900
			CHANNELS 3 Zrotation Yrotation Xrotation
			JOINT Spine1
			{
				OFFSET 0.000000 1.950000 0.060000
				CHANNELS 3 Zrotation Yrotation Xrotation
				JOINT Neck
				{
					OFFSET 0.000000 0.000000 0.000000
					CHANNELS 3 Zrotation Yrotation Xrotation
					JOINT Neck1
					{
						OFFSET 0.000000 1.600000 0.340000
						CHANNELS 3 Zrotation Yrotation Xrotation
						JOINT Head
						{
							OFFSET 0.000000 1.667000 -0.240000
							CHANNELS 3 Zrotation Yrotation Xrotation
							End Site
							{
								OFFSET 0.000000 0.000000 0.000000
							}
						}
					}
				}
				JOINT LeftShoulder
				{
					OFFSET 0.000000 0.000000 0.000000
					CHANNELS 3 Zrotation Yrotation Xrotation
					JOINT LeftArm
					{
						OFFSET 2.700000 1.550000 -0.730000
						CHANNELS 3 Zrotation Yrotation Xrotation
						JOINT LeftForeArm
						{
							OFFSET 5.450000 0.000000 0.000000
							CHANNELS 3 Zrotation Yrotation Xrotation
							JOINT LeftHand
							{
								OFFSET 3.450000 0.000000 0.000000
								CHANNELS 3 Zrotation Yrotation Xrotation
								JOINT LeftHandIndex1
								{
									OFFSET 0.750000 0.000000 0.000000
									CHANNELS 3 Zrotation Yrotation Xrotation
									End Site
									{
										OFFSET 0.000000 0.000000 0.000000
									}
								}
							}
						}
					}
				}
				JOINT RightShoulder
				{
					OFFSET 0.000000 0.000000 0.000000
					CHANNELS 3 Zrotation Yrotation Xrotation
					JOINT RightArm
					{
						OFFSET -2.700000 1.550000 -0.730000
						CHANNELS 3 Zrotation Yrotation Xrotation
						JOINT RightForeArm
						{
							OFFSET -5.450000 0.000000 0.000000
							CHANNELS 3 Zrotation Yrotation Xrotation
							JOINT RightHand
							{
								OFFSET -3.450000 0.000000 0.000000
								CHANNELS 3 Zrotation Yrotation Xrotation
								JOINT RightHandIndex1
								{
									OFFSET -0.750000 0.000000 0.000000
									CHANNELS 3 Zrotation Yrotation Xrotation
									End Site
									{
										OFFSET 0.000000 0.000000 0.000000
									}
								}
							}
						}
					}
				}
			}
		}
	}
}
MOTION
Frames: 11
Frame Time: 0.016667
-1.236570 16.976870 -0.766950 -4.758762 -7.728743 -9.693140 -15.128192 13.394889 3.039916 1.422212 -3.502494 -14.910387 -3.460503 9.863880 40.550704 0.464493 7.357917 1.906368 0.201670 0.169580 0.122470 18.283883 -10.656582 3.121196 0.195807 3.803392 -26.257533 4.441292 -4.080835 19.331222 0.093930 -2.488075 3.400744 0.180710 0.117650 0.051670 -3.540083 -1.866875 -7.559933 5.433279 -0.291313 17.728391 -4.055959 1.137290 10.974061 0.904057 -2.521918 -6.633833 -11.115938 6.255651 57.335564 -0.348950 2.710840 3.026720 -10.272907 4.020950 -0.453392 -37.539343 -14.015478 -2.754114 10.923373 -66.681904 -7.400405 -3.585968 3.221864 0.083360 0.104370 -0.025190 0.073880 8.462228 -1.967139 1.990617 39.591124 6.025245 -5.372581 31.910724 46.151304 10.674890 2.283913 -1.759254 -0.075860 0.122800 -0.009440 -0.050720 
-1.248140 16.904970 -0.779360 -4.522700 -8.411373 -9.588034 -15.152376 13.321980 3.051125 1.410827 -3.567439 -15.266218 -3.723693 10.315417 41.646979 0.522336 7.606569 1.823656 0.205230 0.177180 0.122690 18.278907 -10.516246 3.231113 0.435024 4.083158 -27.434662 5.270943 -3.749870 16.356647 0.136592 -2.184265 3.510098 0.185180 0.120120 0.054160 -3.500042 -1.892006 -7.631377 4.966815 0.035496 17.901010 -4.103291 1.432708 10.907094 0.847002 -2.491312 -6.707073 -10.899875 6.466739 56.386859 -0.163330 3.121340 2.764580 -10.051070 3.629647 -0.454256 -36.932428 -14.551309 -2.662332 12.434192 -66.203115 -8.148907 -3.586470 3.206281 0.079030 0.107760 -0.025640 0.076840 8.296530 -1.529191 2.138452 39.664324 6.249794 -5.372690 31.495860 47.111291 10.781618 2.276340 -1.771645 -0.074350 0.120220 -0.012800 -0.049760 
-1.282400 16.730590 -0.802660 -4.499634 -8.949493 -10.023489 -15.246154 13.317511 3.044930 1.251944 -3.655463 -15.375915 -3.279101 10.695210 43.841785 0.595868 8.021050 1.686288 0.213860 0.187740 0.133780 18.215365 -10.221745 3.387504 0.460078 4.369024 -28.601572 6.763840 -3.126210 10.714648 0.183510 -1.776911 3.661070 0.197990 0.117770 0.052660 -3.281468 -2.238827 -7.754857 3.284856 0.326813 18.852683 -3.197462 1.607947 10.856928 0.552351 -2.766999 -6.753741 -11.565066 7.229865 55.402307 -0.354920 3.911490 2.012790 -10.496316 2.898257 -0.393080 -35.334448 -14.585685 -2.849461 16.305652 -66.791204 -10.524278 -3.581569 3.142659 0.090770 0.108740 -0.021990 0.075400 9.311760 -0.351814 2.149405 37.511668 6.651735 -5.566966 29.077516 48.622380 10.394896 2.256718 -1.753074 -0.084540 0.129200 -0.013060 -0.060320 
-1.324480 16.531150 -0.824730 -4.642573 -9.917187 -10.766052 -15.323431 13.203832 3.072951 1.866061 -3.864166 -15.979292 -3.832200 11.952093 46.961613 0.752746 8.747276 1.439304 0.238720 0.223890 0.152270 18.177841 -9.907543 3.574963 0.697730 4.912481 -29.961664 7.933120 -2.440061 5.608580 0.192556 -1.522618 3.751749 0.217180 0.103110 0.057720 -3.126900 -2.421480 -7.941456 1.904813 0.800860 20.323503 -2.449707 1.958049 10.499389 0.363511 -2.541456 -6.496257 -10.825876 7.306288 54.689408 -0.139470 4.475760 0.916680 -11.487251 2.239728 -0.551427 -33.410955 -14.657664 -3.066726 18.907673 -67.838791 -12.258502 -3.572382 3.112496 0.096530 0.102310 -0.005510 0.076410 10.682690 0.441667 1.883277 36.248019 7.644841 -5.814143 24.470734 50.058207 9.085972 2.238451 -1.722064 -0.075540 0.128690 -0.024120 -0.063890 
-1.348760 16.335580 -0.833610 -4.550061 -11.477767 -11.398872 -15.405905 12.951481 3.134609 2.391036 -4.276482 -17.256835 -4.559263 13.780750 51.343297 0.993099 9.798878 1.115357 0.221530 0.209740 0.140600 18.152478 -9.484133 3.813646 -0.300002 5.478085 -30.697806 11.039908 -1.571966 -1.307996 0.160678 -1.600277 3.738542 0.214030 0.127070 0.058880 -3.006519 -2.535235 -8.188300 0.772038 1.427610 21.506444 -2.049121 2.516013 9.931301 0.372357 -2.461984 -6.188053 -10.218512 7.576155 53.615618 -0.105740 5.182110 0.816720 -12.808581 1.887850 -0.747435 -32.009785 -14.339720 -3.293358 21.587741 -69.633546 -14.332029 -3.592313 3.071478 0.086000 0.122480 -0.019640 0.074170 11.944353 1.049454 1.626772 33.793701 8.419105 -5.556031 23.064299 50.779708 8.919704 2.231748 -1.705405 -0.086190 0.137990 -0.012510 -0.063450 
-1.370710 16.179110 -0.840810 -5.022804 -11.837030 -12.124181 -15.501924 12.837781 3.206367 2.750439 -4.836143 -18.743347 -3.406841 14.637273 56.485146 1.198390 10.747333 0.827888 0.213690 0.198480 0.144770 18.109366 -9.141067 3.960386 0.106720 6.101084 -32.011833 10.317159 -0.763865 -5.524193 0.163319 -1.534592 3.767476 0.214410 0.135310 0.066190 -2.827882 -2.799694 -8.386380 -0.347345 1.721869 23.094267 -0.778714 2.691265 9.098114 0.306568 -2.174608 -5.505912 -9.376314 7.060273 52.853427 -0.770850 5.341760 0.546740 -14.981463 1.695740 -1.170850 -30.998518 -14.455133 -3.262173 18.903366 -70.075188 -12.732260 -3.637195 3.105151 0.076930 0.139480 -0.029640 0.066310 14.316412 1.408524 1.009834 31.766262 9.399260 -5.678525 19.252120 50.862921 7.604420 2.222068 -1.668336 -0.091690 0.137910 -0.004490 -0.069470 
-1.404560 16.078890 -0.839850 -5.479784 -11.485762 -13.436373 -15.558388 12.788283 3.278995 3.793581 -5.271956 -19.129436 -3.311469 15.785428 60.143240 1.372204 11.526062 0.589672 0.235030 0.228250 0.163550 18.080809 -8.943124 4.001353 0.431143 6.256107 -32.705079 8.422200 -0.345123 -8.199963 0.149938 -1.474939 3.786296 0.234030 0.123010 0.066470 -2.714590 -3.007034 -8.525852 -1.350585 1.620766 25.175078 -0.486770 2.449412 8.165989 0.297289 -1.630660 -4.746219 -8.043935 7.149900 53.244440 -0.390380 6.037260 -0.117820 -18.123738 0.887394 -1.848901 -28.275891 -14.810927 -3.568460 15.648209 -68.985032 -10.268613 -3.669685 3.134133 0.086760 0.134200 -0.016550 0.065340 17.577882 1.830407 0.402201 30.823542 10.350060 -5.958774 15.491484 50.408346 6.092845 2.216717 -1.622091 -0.090920 0.140310 -0.012970 -0.077460 
-1.446250 16.008940 -0.839650 -5.791510 -10.797741 -14.556275 -15.607923 12.822138 3.361994 4.843154 -5.688862 -19.525372 -2.821802 16.420986 63.030393 1.483617 12.064582 0.418043 0.252600 0.239860 0.200370 18.043998 -8.864768 3.957188 0.898568 6.270623 -34.137558 5.399804 -0.412031 -7.879424 0.167636 -1.257659 3.850275 0.234470 0.086600 0.068270 -2.583185 -3.207128 -8.589524 -2.620603 1.462241 26.744464 -0.117636 2.025328 7.555916 0.411212 -0.939610 -4.533432 -6.613303 6.816733 54.625129 -0.548350 6.576160 -0.780270 -19.597694 0.509894 -2.039653 -27.747916 -14.616260 -3.853515 8.993186 -68.139644 -6.102582 -3.680009 3.183240 0.122450 0.111660 0.014740 0.053540 19.082793 1.750682 0.119877 33.157861 10.678286 -6.799643 12.649018 51.593359 4.947252 2.200988 -1.583806 -0.089230 0.136280 -0.022200 -0.097840 
-1.460620 15.985770 -0.831780 -6.128066 -10.134082 -15.408909 -15.590469 12.860777 3.365437 4.961214 -5.888620 -19.457257 -1.764410 16.103733 64.508844 1.528354 12.194597 0.372813 0.255500 0.236270 0.211020 18.053985 -8.835302 4.010901 0.062300 6.363108 -36.219808 4.606145 -0.480714 -6.918566 0.178995 -1.115740 3.884761 0.217680 0.057450 0.069210 -2.623032 -3.254261 -8.633705 -2.523885 0.800316 27.965534 -0.635676 1.255971 6.823891 0.445808 -1.256777 -4.619513 -7.522535 7.477928 56.601589 -0.611080 6.683200 -0.523190 -20.954240 0.681395 -1.999282 -29.213773 -13.674248 -4.390121 4.080597 -67.179459 -3.268453 -3.668787 3.211692 0.146570 0.084860 0.039420 0.046500 20.470216 1.569583 -0.038166 36.239447 10.399717 -7.942323 10.649213 53.769016 4.121215 2.195713 -1.566283 -0.077430 0.124470 -0.025480 -0.101730 
-1.469410 16.020890 -0.823230 -6.930069 -10.948729 -15.828080 -15.527988 12.944354 3.222262 5.528217 -5.369770 -18.599744 -0.720966 15.387302 63.909554 1.471215 11.935489 0.427186 0.269280 0.248990 0.232650 18.099294 -8.835025 4.185903 -0.543326 7.111468 -38.740048 6.035117 -0.616180 -4.614262 0.191605 -0.961926 3.916952 0.210800 0.015090 0.065030 -2.771349 -3.182394 -8.622395 -0.968091 0.133793 28.549252 -1.338161 0.827106 6.140653 0.588618 -1.894329 -4.556004 -9.292258 8.659992 59.112096 -1.095350 6.911230 -0.251520 -22.543608 1.742787 -2.267706 -32.867300 -13.439681 -4.700659 1.098556 -65.299834 -1.652770 -3.643957 3.206871 0.167080 0.053390 0.068490 0.037470 21.702823 0.645487 -0.369549 39.825302 10.004282 -9.025561 10.334184 57.091327 4.018591 2.195862 -1.576996 -0.061100 0.111050 -0.036220 -0.107610 
-1.465250 16.082080 -0.797710 -7.761214 -11.274433 -15.873361 -15.458700 13.029322 3.062637 5.463211 -5.035043 -17.602331 0.549462 14.059287 62.546097 1.363705 11.467564 0.550231 0.278720 0.255030 0.256870 18.154982 -8.827545 4.375099 -1.498396 7.647564 -41.268447 7.451217 -0.815042 -2.542638 0.192603 -0.890154 3.922388 0.201710 -0.023290 0.063860 -2.949098 -3.139779 -8.594753 0.716649 -1.142096 28.839666 -2.594491 -0.273132 5.465310 0.956100 -2.588384 -4.449676 -11.067576 10.279945 60.887410 -2.202310 7.702590 0.064860 -24.082929 3.056575 -2.678947 -35.966800 -12.469891 -5.395427 -0.717092 -62.636491 -0.761709 -3.629941 3.186952 0.183650 0.032250 0.093300 0.028720 22.504200 -0.868962 -0.673784 43.367941 9.140998 -9.551146 15.043410 60.976393 6.427905 2.216260 -1.637176 -0.048540 0.096270 -0.046920 -0.117390 
